<?xml version="1.0" encoding="utf-8"?>
<!-- Generator: Adobe Illustrator 26.0.1, SVG Export Plug-In . SVG Version: 6.00 Build 0)  -->
<svg version="1.1" id="Layer_1" xmlns="http://www.w3.org/2000/svg" xmlns:xlink="http://www.w3.org/1999/xlink" x="0px" y="0px"
	 width="87.603px" height="87.603px" viewBox="0 0 87.603 87.603" enable-background="new 0 0 87.603 87.603" xml:space="preserve">
<g>
	<path fill="#0070A8" d="M43.802,2.624c-22.706,0-41.179,18.472-41.179,41.177c0,22.706,18.473,41.179,41.179,41.179
		c22.705,0,41.178-18.473,41.178-41.179C84.98,21.096,66.507,2.624,43.802,2.624 M43.802,87.603C19.65,87.603,0,67.954,0,43.801
		C0,19.649,19.65,0,43.802,0s43.801,19.649,43.801,43.801C87.603,67.954,67.954,87.603,43.802,87.603"/>
</g>
<polygon fill="#0070A8" points="12.225,27.8 20.521,30.874 19.666,33.183 16.381,31.966 14.993,35.71 18.278,36.927 17.422,39.237 
	9.126,36.163 9.981,33.853 13.087,35.004 14.475,31.259 11.369,30.109 "/>
<g>
	<path fill="#0070A8" d="M20.349,20.614l5.118,4.129l-1.441,1.787l-0.544-0.393c0.121,0.65-0.039,1.305-0.527,1.91
		c-1.073,1.331-3.009,1.597-4.59,0.321c-1.601-1.291-1.787-3.269-0.714-4.6c0.488-0.605,1.094-0.899,1.764-0.911l-0.507-0.456
		L20.349,20.614z M21.407,24.54c-0.633-0.511-1.369-0.474-1.827,0.093c-0.451,0.558-0.33,1.286,0.312,1.803
		c0.624,0.503,1.36,0.467,1.81-0.092C22.16,25.777,22.049,25.057,21.407,24.54"/>
	<path fill="#0070A8" d="M25.756,16.169l1.217,1.839c-0.91,0.699-1.288,1.638-0.844,2.216l1.98,2.576l-1.895,1.457l-4.005-5.211
		l1.829-1.405l0.473,0.556C24.617,17.452,25.036,16.723,25.756,16.169"/>
	<path fill="#0070A8" d="M32.741,17.606l0.879,1.698c-0.384,0.455-0.907,0.847-1.406,1.105c-1.189,0.616-2.419,0.216-3.056-1.016
		l-2.902-5.604l2.123-1.1l0.885,1.71l1.348-0.698l0.896,1.73l-1.348,0.697l0.889,1.721c0.21,0.403,0.586,0.558,0.926,0.382
		C32.251,18.089,32.51,17.887,32.741,17.606"/>
	<path fill="#0070A8" d="M33.041,16.15c-0.564-1.965,0.475-3.681,2.612-4.293c0.862-0.247,1.756-0.167,2.485,0.121l-0.842,1.921
		c-0.266-0.148-0.608-0.212-1.033-0.09c-0.736,0.211-1.071,0.866-0.844,1.659c0.225,0.782,0.847,1.176,1.595,0.962
		c0.506-0.145,0.834-0.388,1.005-0.786l1.734,1.145c-0.455,0.802-1.268,1.346-2.257,1.629C35.381,19.024,33.604,18.116,33.041,16.15
		"/>
	<path fill="#0070A8" d="M46.449,14.88l-4.274,0.173c0.124,0.437,0.398,0.689,1.007,0.665c0.465-0.019,0.829-0.201,1.08-0.499
		l1.887,0.822c-0.504,0.845-1.543,1.485-2.857,1.538c-2.125,0.086-3.611-1.17-3.69-3.165c-0.085-2.089,1.231-3.553,3.297-3.636
		c2.065-0.084,3.492,1.174,3.572,3.157C46.484,14.257,46.474,14.604,46.449,14.88 M42.111,13.465l1.826-0.074
		c-0.141-0.521-0.438-0.772-0.963-0.751C42.473,12.66,42.209,12.946,42.111,13.465"/>
	<path fill="#0070A8" d="M54.646,14.929l-0.939,4.004l-2.328-0.546l0.859-3.667c0.124-0.523-0.182-0.952-0.775-1.09
		c-0.594-0.14-1.057,0.107-1.181,0.631l-0.86,3.667l-2.327-0.546l1.502-6.403l2.246,0.528l-0.124,0.634
		c0.632-0.393,1.385-0.461,2.049-0.305C54.246,12.183,55.001,13.417,54.646,14.929"/>
	<path fill="#0070A8" d="M58.91,19.212l-0.841,1.718c-0.593-0.038-1.22-0.226-1.724-0.472c-1.203-0.588-1.614-1.815-1.004-3.059
		l2.774-5.668l2.147,1.051l-0.847,1.728l1.364,0.667l-0.857,1.75l-1.363-0.668l-0.851,1.74c-0.199,0.408-0.1,0.802,0.243,0.97
		C58.231,19.105,58.546,19.194,58.91,19.212"/>
	<path fill="#0070A8" d="M66.217,18.798L64.79,20.48c-0.925-0.68-1.933-0.782-2.364-0.193l-1.924,2.621l-1.927-1.415l3.889-5.301
		l1.86,1.366l-0.402,0.608C64.667,18.061,65.485,18.26,66.217,18.798"/>
	<path fill="#0070A8" d="M64.549,22.523l2.914-2.515l1.561,1.809l-2.849,2.461c-0.399,0.344-0.451,0.831-0.115,1.221
		c0.328,0.379,0.818,0.399,1.217,0.055l2.849-2.461l1.563,1.81l-2.914,2.515c-1.285,1.11-2.997,0.882-4.262-0.584
		C63.24,25.359,63.255,23.64,64.549,22.523"/>
	<path fill="#0070A8" d="M75.057,37.922l-3.825,1.51l-0.878-2.224l3.503-1.383c0.5-0.197,0.699-0.636,0.511-1.114
		c-0.189-0.478-0.635-0.663-1.135-0.465l-3.503,1.383l-0.878-2.224l3.503-1.383c0.501-0.197,0.699-0.636,0.511-1.114
		c-0.189-0.478-0.633-0.662-1.135-0.465l-3.502,1.384l-0.878-2.224l6.116-2.415l0.847,2.146l-0.537,0.237
		c0.625,0.28,1.074,0.797,1.307,1.387c0.271,0.689,0.24,1.357-0.062,1.927c0.693,0.291,1.172,0.886,1.436,1.553
		C77.055,35.95,76.502,37.351,75.057,37.922"/>
</g>
<polygon fill="#0070A8" points="50.184,69.097 51.01,77.469 50.151,77.554 49.766,73.662 44.595,74.173 44.979,78.065 44.12,78.149 
	43.293,69.777 44.154,69.692 44.524,73.449 49.695,72.938 49.324,69.181 "/>
<g>
	<path fill="#0070A8" d="M57.803,68.584l2.373,5.529l-0.732,0.313l-0.532-1.182c-0.039,0.946-0.551,1.771-1.649,2.243
		c-1.547,0.663-3.142,0-3.879-1.714c-0.739-1.725-0.13-3.36,1.416-4.024c1.098-0.471,2.049-0.273,2.762,0.349l-0.49-1.2
		L57.803,68.584z M58.239,71.676c-0.57-1.327-1.766-1.865-2.978-1.345c-1.223,0.525-1.656,1.763-1.082,3.101
		c0.565,1.317,1.761,1.855,2.983,1.331C58.375,74.242,58.809,73.004,58.239,71.676"/>
	<path fill="#0070A8" d="M62.568,72.014l-0.038-0.613c0.619-0.014,1.174-0.279,1.671-0.658c0.68-0.517,0.891-1.178,0.519-1.667
		c-0.345-0.452-0.962-0.382-1.665-0.104l-0.634,0.239c-0.909,0.364-1.652,0.457-2.196-0.258c-0.641-0.842-0.391-1.903,0.623-2.674
		c0.642-0.489,1.27-0.753,1.959-0.805l0.057,0.657c-0.6,0.056-1.11,0.287-1.572,0.638c-0.634,0.482-0.831,1.105-0.474,1.575
		c0.338,0.443,0.861,0.36,1.487,0.113l0.633-0.239c0.875-0.352,1.811-0.493,2.41,0.295c0.635,0.832,0.357,1.915-0.747,2.755
		C63.922,71.784,63.194,72.067,62.568,72.014"/>
	<path fill="#0070A8" d="M67.818,67.691l-0.163-0.594c0.603-0.14,1.091-0.513,1.502-0.986c0.558-0.645,0.63-1.336,0.166-1.738
		c-0.431-0.373-1.022-0.177-1.653,0.239l-0.571,0.364c-0.816,0.542-1.524,0.786-2.203,0.198c-0.8-0.693-0.773-1.783,0.061-2.746
		c0.529-0.61,1.09-0.998,1.754-1.191l0.19,0.632c-0.576,0.178-1.028,0.509-1.408,0.947c-0.521,0.603-0.588,1.253-0.141,1.64
		c0.421,0.365,0.916,0.176,1.478-0.194l0.571-0.364c0.785-0.524,1.673-0.854,2.42-0.206c0.792,0.686,0.743,1.802-0.166,2.851
		C69.097,67.188,68.442,67.614,67.818,67.691"/>
	<path fill="#0070A8" d="M72.887,56.311l-2.251,4.24c1.204,0.523,2.288,0.299,2.848-0.755c0.379-0.713,0.342-1.493,0.008-2.199
		l0.605-0.387c0.491,0.918,0.472,1.951-0.03,2.895c-0.805,1.517-2.454,1.956-4.113,1.075c-1.647-0.874-2.219-2.465-1.414-3.983
		c0.795-1.497,2.404-1.931,4.021-1.072C72.651,56.173,72.812,56.258,72.887,56.311 M70.124,60.279l1.856-3.497
		c-1.218-0.569-2.313-0.3-2.857,0.725C68.579,58.531,68.975,59.579,70.124,60.279"/>
</g>
<rect x="71.713" y="48.52" transform="matrix(0.2934 -0.956 0.956 0.2934 0.3372 106.3656)" fill="#0070A8" width="0.818" height="8.87"/>
<g>
	<path fill="#0070A8" d="M77.085,47.078l0.655,0.144c0.079,0.437,0.051,0.931-0.069,1.475c-0.21,0.955-1.005,1.444-1.971,1.231
		l-6.084-1.341l0.176-0.799l1.721,0.379l0.467-2.121l0.666,0.147l-0.467,2.121l3.542,0.78c0.645,0.142,1.179-0.171,1.316-0.793
		C77.124,47.901,77.144,47.499,77.085,47.078"/>
	<path fill="#DB1A16" d="M63.533,34.826c-0.14-0.224-0.287-0.443-0.442-0.656c-0.378-0.521-0.799-1.01-1.254-1.464
		c-0.142-0.141-0.288-0.28-0.436-0.414c-0.697-0.633-1.469-1.193-2.316-1.658c-4.458-2.462-10.328-1.726-14.059,1.658h-0.33
		c-0.605-0.547-1.264-1.026-1.965-1.431c-0.103-0.06-0.205-0.119-0.308-0.174c-3.593-1.942-8.164-2.059-11.796-0.053
		c-0.094,0.051-0.182,0.109-0.274,0.163c-0.739,0.43-1.421,0.932-2.041,1.495c-0.717,0.65-1.356,1.376-1.895,2.168
		c-1.353,1.989-2.114,4.365-2.114,6.847c0,0.882,0.107,1.746,0.287,2.559h2.777C27.127,43.031,27,42.17,27,41.307
		c0-2.618,1.077-5.077,2.92-6.847c0.591-0.567,1.258-1.066,1.996-1.474c0.527-0.29,1.081-0.518,1.648-0.694
		c1.851-0.577,3.857-0.557,5.708,0c0.325,0.098,0.644,0.213,0.958,0.344c1.011,0.422,1.95,1.013,2.765,1.764
		c0.021,0.02,0.044,0.04,0.065,0.06c0.263,0.247,0.517,0.506,0.752,0.787c0.525,0.616,1.564,0.616,2.075,0
		c0.235-0.281,0.49-0.539,0.754-0.787c1.081-1.014,2.39-1.745,3.794-2.168c1.841-0.554,3.838-0.576,5.682,0
		c0.573,0.179,1.133,0.411,1.666,0.707c0.735,0.404,1.4,0.898,1.988,1.461c0.191,0.184,0.374,0.374,0.55,0.571
		c1.509,1.711,2.378,3.939,2.378,6.291c0,0.682-0.088,1.361-0.228,2.028c-0.135,0.649-0.312,1.29-0.538,1.913
		c-0.126,0.348-0.275,0.691-0.437,1.024c-0.173,0.354-0.364,0.699-0.566,1.038c-0.216,0.359-0.447,0.711-0.688,1.055
		c-0.255,0.364-0.522,0.719-0.796,1.068c-0.289,0.364-0.586,0.722-0.89,1.072c-0.317,0.364-0.641,0.721-0.97,1.071
		c-0.34,0.361-0.685,0.715-1.036,1.064c-0.357,0.355-0.72,0.705-1.088,1.05c-0.371,0.347-0.747,0.69-1.125,1.029
		c-0.38,0.337-0.764,0.671-1.15,1.001c-0.383,0.326-0.771,0.649-1.16,0.968c-0.382,0.313-0.767,0.623-1.155,0.929
		c-0.377,0.296-0.756,0.591-1.137,0.881c-0.366,0.28-0.734,0.557-1.105,0.83c-0.351,0.258-0.704,0.515-1.059,0.769
		c-0.331,0.237-0.664,0.472-0.998,0.704c-0.306,0.213-0.614,0.424-0.923,0.631c-0.135,0.091-0.27,0.181-0.405,0.271
		c-0.065,0.042-0.129,0.086-0.195,0.128c-0.032,0.021-0.064,0.042-0.097,0.064c-0.019,0.012-0.069,0.06-0.091,0.06
		c-0.12-0.08-0.298-0.205-0.518-0.364c-1.95-1.407-7.553-5.702-11.487-8.862h-2.561h-1.694c0.348,0.294,0.721,0.605,1.119,0.93
		c0.71,0.581,1.49,1.208,2.309,1.855c2.856,2.255,6.178,4.773,8.619,6.6c1.281,0.959,2.32,1.728,2.918,2.169
		c0.338,0.247,0.538,0.393,0.561,0.407c0.163,0.107,0.342,0.157,0.523,0.182c0.065,0.01,0.131,0.027,0.196,0.027
		c0.267,0,0.502-0.064,0.724-0.209c0.07-0.043,0.293-0.184,0.635-0.407c0.663-0.433,1.784-1.182,3.16-2.169
		c0.348-0.249,0.693-0.5,1.036-0.753c0.372-0.273,0.74-0.549,1.108-0.828c0.388-0.296,0.775-0.595,1.159-0.898
		c0.403-0.316,0.802-0.636,1.198-0.959c0.41-0.335,0.816-0.673,1.218-1.016c0.41-0.349,0.818-0.704,1.22-1.064
		c0.406-0.364,0.809-0.733,1.205-1.107c0.396-0.375,0.788-0.756,1.173-1.142c0.381-0.384,0.756-0.774,1.124-1.171
		c0.36-0.391,0.715-0.788,1.058-1.194c0.335-0.394,0.66-0.797,0.974-1.209c0.303-0.398,0.596-0.803,0.874-1.218
		c0.266-0.397,0.519-0.805,0.756-1.221c0.224-0.395,0.433-0.8,0.62-1.215c0.14-0.309,0.259-0.626,0.375-0.944
		c0.233-0.636,0.413-1.295,0.572-1.952c0.071-0.294,0.141-0.589,0.194-0.886c0.118-0.668,0.178-1.345,0.179-2.024v-0.021
		c0-0.635-0.05-1.269-0.15-1.897c-0.099-0.618-0.245-1.228-0.438-1.824c-0.192-0.592-0.429-1.169-0.709-1.725
		C63.936,35.508,63.743,35.161,63.533,34.826"/>
	<path fill="#0070A8" d="M56.188,45.432c-0.07-0.715-0.665-1.275-1.397-1.275h-5.353c-0.509,0-0.979,0.274-1.229,0.717l-2.352,4.159
		l-2.23-8.414l-0.001-0.001c-0.154-0.582-0.661-1.001-1.262-1.046c-0.313-0.021-0.615,0.064-0.868,0.227
		c-0.23,0.148-0.418,0.363-0.532,0.627l-2.75,6.436h-3.981h-0.655h-8.83c-0.507,0-0.948,0.271-1.197,0.672
		c-0.134,0.216-0.215,0.468-0.215,0.74c0,0.653,0.448,1.197,1.051,1.358c0.116,0.031,0.236,0.054,0.361,0.054H35.75h3.395
		c0.565,0,1.076-0.338,1.299-0.857l1.505-3.522l2.066,7.798c0.147,0.555,0.616,0.965,1.185,1.039c0.06,0.007,0.12,0.011,0.18,0.011
		c0.504,0,0.976-0.27,1.229-0.715l3.653-6.461h4.529c0.071,0,0.14-0.01,0.209-0.021c0.68-0.102,1.201-0.682,1.201-1.389
		C56.2,45.522,56.191,45.478,56.188,45.432"/>
</g>
</svg>
